PathFileType	4	(x/y/z)	S02_PSF_T06
DataRate	CameraRate	NumFrames	NumMarkers	Units	OrigDataRate	OrigDataStartFrame	OrigNumFrames
240	240	5	51	mm	240	357	407
Frame#	Time	Sternum			R.Acromium			L.Acromium			Top.Head			R.ASIS			L.ASIS			R.PSIS			L.PSIS			R.Great.Tro			L.Great.Tro			R.Iliac.Crest			L.Iliac.Crest			V.Sacral			R.Thigh.Upper.Post			R.Thigh.Lower.Ant			R.Thigh.Lower.Post			R.Thigh.Upper.Ant			R.Knee.Lat			R.Knee.Med			R.Shank.Upper.Post			R.Shank.Lower.Ant			R.Shank.Lower.Post			R.Shank.Upper.Ant			R.Ankle.Lat			R.Ankle.Med			R.Heel.Upper			R.Heel.Med			R.Heel.Lat			R.Toe.Lat			R.Toe.Med			R.Toe.Tip			L.Thigh.Upper.Post			L.Thigh.Lower.Ant			L.Thigh.Lower.Post			L.Thigh.Upper.Ant			L.Knee.Lat			L.Knee.Med			L.Shank.Upper.Post			L.Shank.Lower.Ant			L.Shank.Lower.Post			L.Shank.Upper.Ant			L.Ankle.Lat			L.Ankle.Med			L.Heel.Upper			L.Heel.Med			L.Heel.Lat			L.Toe.Lat			L.Toe.Med			L.Toe.Tip			Cervical.Spine			Back			
		X1	Y1	Z1	X2	Y2	Z2	X3	Y3	Z3	X4	Y4	Z4	X5	Y5	Z5	X6	Y6	Z6	X7	Y7	Z7	X8	Y8	Z8	X9	Y9	Z9	X10	Y10	Z10	X11	Y11	Z11	X12	Y12	Z12	X13	Y13	Z13	X14	Y14	Z14	X15	Y15	Z15	X16	Y16	Z16	X17	Y17	Z17	X18	Y18	Z18	X19	Y19	Z19	X20	Y20	Z20	X21	Y21	Z21	X22	Y22	Z22	X23	Y23	Z23	X24	Y24	Z24	X25	Y25	Z25	X26	Y26	Z26	X27	Y27	Z27	X28	Y28	Z28	X29	Y29	Z29	X30	Y30	Z30	X31	Y31	Z31	X32	Y32	Z32	X33	Y33	Z33	X34	Y34	Z34	X35	Y35	Z35	X36	Y36	Z36	X37	Y37	Z37	X38	Y38	Z38	X39	Y39	Z39	X40	Y40	Z40	X41	Y41	Z41	X42	Y42	Z42	X43	Y43	Z43	X44	Y44	Z44	X45	Y45	Z45	X46	Y46	Z46	X47	Y47	Z47	X48	Y48	Z48	X49	Y49	Z49	X50	Y50	Z50	X51	Y51	Z51	

357	1.4833	608.96	1088.6	301.56	492.19	1325.6	433.96	529.27	1330.6	145.21	553.74	1614	297.95	580.93	934.92	397.07	584.66	913.82	185.9	368.78	961.43	346.85	359.78	965.6	273.97	520.67	815.55	497.66	448.68	825.88	104.66	475.23	973.08	457.46	458.4	959.97	125.35	340.5	914.73	305.86	604.15	623.03	492.69	683.92	570.49	457.01	622.44	535.86	474.73	660.8	656.18	471.29	666.64	474.22	459.7	669.52	457.43	313.89	665.61	258.53	442.6	766	211.83	442.02	700.78	194.11	437.62	736.35	274.62	454.51	755.48	111.25	433.07	774.15	131.74	352.52	714.08	75.979	367.82	742.21	52.529	342.57	721.79	44.864	402.66	865.96	87.477	473.22	914.47	101.59	376.27	938.65	140.82	438.52	379.04	615.71	139.09	436.59	522	147.21	359.53	529.84	163.6	449.49	613.83	123.77	401.63	446.24	159.25	393.58	449.55	298.17	283.3	295.05	164.42	334.3	197.31	184.37	267.17	224.65	183.36	344.24	271.07	166.09	269.36	105.56	201.63	279.46	101.77	283.04	206.74	72.208	233.13	214.01	45.623	266.35	212.15	44.933	204.6	378.56	34.74	178	398.33	44.46	288.54	459.53	57.808	242.65	437.29	1390	281.81	353.95	1141.4	278.14
358	1.4875	614.38	1087	302	497.46	1324.1	434.44	534.92	1329.2	145.78	559.22	1612.6	298.61	586.65	933.49	397.27	589.94	912.4	185.94	374.34	960.16	347.48	365.22	964.43	274.62	526.51	813.87	497.65	453.56	825.02	104.9	480.97	971.64	457.92	463.53	958.71	125.7	345.88	913.55	306.47	610.08	621.7	492.49	689.3	568.99	455.82	628.07	534.45	474.62	666.38	654.76	470.06	672.3	473.07	459.38	673.63	455.59	313.07	674.78	257.35	442.74	776.18	212.49	442.12	711.2	193.56	437.76	745.35	274.81	454.59	767.71	111.48	433.24	785.61	132.13	352.61	726.73	75.038	368.36	755.25	52.119	343.04	735.25	44.175	403.19	878.95	89.979	473.01	926.74	104.9	375.86	950.39	144.82	437.86	383.18	615.26	139.37	440.25	521.24	147.41	363.25	529.48	163.9	453.61	613.01	123.98	404.87	445.59	159.45	396.74	448.99	298.36	285.39	295.29	164.43	335.52	197.14	184.46	268.64	225.02	183.37	346.13	270.8	166.19	269.65	105.94	201.62	279.76	102.02	283.05	206.87	72.519	233.13	214.07	45.922	266.37	212.2	45.227	204.59	378.6	34.701	178.01	398.4	44.381	288.53	459.64	57.617	242.64	442.75	1388.8	282.28	359.3	1140.2	278.39
359	1.4917	619.82	1085.4	302.44	502.76	1322.7	434.94	540.56	1327.8	146.37	564.7	1611.3	299.28	592.37	932.05	397.48	595.24	910.99	185.98	379.92	958.88	348.12	370.68	963.25	275.28	532.37	812.17	497.63	458.5	824.12	105.13	486.73	970.18	458.4	468.69	957.44	126.05	351.28	912.36	307.08	616.05	620.4	492.3	694.75	567.57	454.65	633.79	533.08	474.49	671.98	653.4	468.87	678.04	471.96	459.09	677.87	453.82	312.31	683.66	256.22	442.85	785.95	213.04	442.14	721.2	193.02	437.83	754.05	274.93	454.62	779.38	111.68	433.31	796.51	132.48	352.59	738.77	74.159	368.8	767.62	51.747	343.4	748.06	43.537	403.61	891.33	92.283	472.64	938.35	107.98	375.26	961.55	148.51	437.03	387.42	614.74	139.65	444.03	520.44	147.62	367.09	529.07	164.22	457.82	612.16	124.2	408.25	444.89	159.67	400.07	448.39	298.57	287.58	295.54	164.45	336.8	196.97	184.55	270.19	225.4	183.37	348.12	270.52	166.3	269.97	106.35	201.61	280.09	102.3	283.05	207.01	72.872	233.12	214.15	46.27	266.38	212.26	45.557	204.58	378.64	34.66	178.02	398.47	44.305	288.51	459.77	57.419	242.63	448.23	1387.5	282.78	364.66	1138.9	278.67
360	1.4958	625.29	1083.8	302.9	508.1	1321.2	435.48	546.19	1326.3	146.98	570.18	1610	299.96	598.1	930.58	397.7	600.56	909.59	186.04	385.5	957.59	348.77	376.16	962.06	275.94	538.25	810.45	497.62	463.48	823.18	105.36	492.5	968.71	458.89	473.86	956.17	126.41	356.68	911.15	307.7	622.07	619.14	492.11	700.28	566.22	453.53	639.6	531.77	474.35	677.62	652.11	467.73	683.86	470.88	458.8	682.27	452.12	311.61	692.25	255.13	442.93	795.31	213.48	442.06	730.78	192.47	437.83	762.46	274.96	454.57	790.46	111.82	433.27	806.83	132.76	352.46	750.16	73.321	369.14	779.28	51.384	343.63	760.18	42.925	403.92	903.07	94.347	472.11	949.28	110.78	374.48	972.1	151.84	436.02	391.75	614.18	139.95	447.92	519.61	147.84	371.05	528.6	164.55	462.12	611.28	124.43	411.77	444.15	159.9	403.57	447.75	298.79	289.88	295.79	164.47	338.15	196.79	184.63	271.83	225.8	183.38	350.2	270.23	166.42	270.33	106.8	201.58	280.43	102.61	283.04	207.16	73.277	233.08	214.22	46.675	266.37	212.33	45.929	204.55	378.69	34.615	178.03	398.54	44.231	288.49	459.9	57.212	242.62	453.71	1386.3	283.32	370.05	1137.7	278.97
361	1.5	630.78	1082.1	303.37	513.48	1319.7	436.04	551.82	1324.9	147.61	575.68	1608.7	300.66	603.84	929.12	397.94	605.91	908.21	186.11	391.08	956.28	349.42	381.67	960.85	276.61	544.15	808.75	497.62	468.53	822.22	105.58	498.28	967.23	459.4	479.05	954.9	126.78	362.1	909.93	308.32	628.13	617.92	491.92	705.9	564.97	452.45	645.51	530.51	474.18	683.31	650.89	466.66	689.78	469.85	458.53	686.83	450.51	310.98	700.53	254.07	442.97	804.24	213.76	441.89	739.93	191.9	437.76	770.58	274.88	454.45	800.94	111.88	433.13	816.56	132.93	352.22	760.87	72.505	369.38	790.22	51.005	343.74	771.59	42.318	404.11	914.15	96.134	471.42	959.53	113.26	373.52	982.06	154.78	434.85	396.16	613.57	140.27	451.94	518.75	148.06	375.13	528.07	164.9	466.51	610.37	124.67	415.43	443.38	160.15	407.24	447.05	299.01	292.29	296.05	164.49	339.56	196.62	184.71	273.54	226.22	183.38	352.37	269.93	166.54	270.74	107.28	201.55	280.8	102.96	283.01	207.34	73.739	233.02	214.3	47.144	266.34	212.41	46.349	204.5	378.74	34.567	178.04	398.61	44.16	288.47	460.04	56.997	242.61	459.21	1385	283.88	375.45	1136.4	279.31
